<svg xmlns="http://www.w3.org/2000/svg" viewBox="0 0 512 512" width="512" height="512" role="img" aria-label="Number Meadow">
  <defs>
    <linearGradient id="sky" x1="0" y1="0" x2="0" y2="1">
      <stop offset="0" stop-color="#FFE9C7"/>
      <stop offset="1" stop-color="#FFD6E8"/>
    </linearGradient>
  </defs>
  <!-- maskable-safe background fills the whole canvas -->
  <rect width="512" height="512" rx="112" fill="url(#sky)"/>
  <!-- soft hill -->
  <path d="M0 400 Q256 320 512 400 L512 512 L0 512 Z" fill="#56C36A"/>
  <!-- Twinkle the star -->
  <g transform="translate(256 236)">
    <path transform="scale(1.9)"
      d="M0 -60 L17 -20 L60 -18 L27 9 L38 52 L0 28 L-38 52 L-27 9 L-60 -18 L-17 -20 Z"
      fill="#FFC24B" stroke="#E9A63B" stroke-width="6" stroke-linejoin="round"/>
    <!-- face -->
    <circle cx="-26" cy="-6" r="11" fill="#4A3A6B"/>
    <circle cx="26" cy="-6" r="11" fill="#4A3A6B"/>
    <circle cx="-22" cy="-10" r="4" fill="#FFF8EF"/>
    <circle cx="30" cy="-10" r="4" fill="#FFF8EF"/>
    <path d="M-20 22 Q0 42 20 22" fill="none" stroke="#4A3A6B" stroke-width="8" stroke-linecap="round"/>
    <circle cx="-46" cy="16" r="9" fill="#FF7A9A" opacity="0.6"/>
    <circle cx="46" cy="16" r="9" fill="#FF7A9A" opacity="0.6"/>
  </g>
</svg>
